<svg xmlns="http://www.w3.org/2000/svg" xmlns:xlink="http://www.w3.org/1999/xlink" width="201" height="107" viewBox="0 0 201 107"><defs><clipPath id="a"><rect width="185.27" height="101.263" fill="none"/></clipPath></defs><rect width="201" height="107" fill="none"/><g transform="translate(7.365 2)"><g clip-path="url(#a)"><path d="M464.631,156.31V170.7h-.863v-1.2a5.132,5.132,0,0,1-.852,1.242,1.454,1.454,0,0,1-1.064.395,2.057,2.057,0,0,1-1.242-.414c-.923-.768-1.408-2.582-1.5-4.474a9.655,9.655,0,0,1,.792-4.869c.591-1.025,1.242-1.36,1.821-1.341a1.918,1.918,0,0,1,1.348.631,2.235,2.235,0,0,1,.544.926h.024V156.31Zm-2.6,13.266a1.557,1.557,0,0,0,1.194-1.124,9.408,9.408,0,0,0-.059-5.736,1.48,1.48,0,0,0-1.23-.986c-.484-.039-.981.276-1.3,1.006a9.242,9.242,0,0,0,.094,5.893c.32.71.816,1.005,1.3.946" transform="translate(-286.266 -97.468)" fill="#c0131e"/><path d="M478.363,172.312a4.873,4.873,0,0,0,.343,2.247c.272.611.674,1.281,1.4,1.281,1.23,0,1.514-1.577,1.656-2.168h1.005a5.919,5.919,0,0,1-.556,2.07,2.338,2.338,0,0,1-2.093,1.537,2.521,2.521,0,0,1-2.188-1.656,9.992,9.992,0,0,1-.627-3.9,9.235,9.235,0,0,1,.769-3.981c.674-1.262,1.514-1.656,2.282-1.558a2.525,2.525,0,0,1,1.845,1.479,10.453,10.453,0,0,1,.7,4.652Zm3.453-1.459a6.191,6.191,0,0,0-.45-2.4,1.361,1.361,0,0,0-1.076-.907,1.275,1.275,0,0,0-1.36.907,6.4,6.4,0,0,0-.532,2.4Z" transform="translate(-297.623 -103.614)" fill="#c0131e"/><path d="M275.428,164.116h-4.411v6.564h-1.112V156.31h1.112v6.17h4.411v-6.17h1.112v14.369h-1.112Z" transform="translate(-168.301 -97.468)" fill="#c0131e"/><path d="M296.734,175.272c0,.3.225.611.473.611a.324.324,0,0,0,.224-.059v1.3a1.539,1.539,0,0,1-.768.178c-.449,0-.887-.809-.922-1.5-.485.611-1.159,1.5-1.975,1.5-1.383,0-2.247-1.2-2.164-3.233.071-1.714.663-2.385,1.3-2.7a10.834,10.834,0,0,1,2.294-.611.775.775,0,0,0,.5-.789v-1.222c-.083-.729-.946-1.064-1.609-1.064-1.171,0-1.242,1.438-1.265,1.912h-.934l.035-.907a3.28,3.28,0,0,1,1.029-2.031,1.936,1.936,0,0,1,1.277-.453,2.681,2.681,0,0,1,1.065.178,2.128,2.128,0,0,1,1.443,1.991Zm-1.029-3.489c-.8.532-1.916.493-2.5.927a1.889,1.889,0,0,0-.591,1.4c-.024,1.281.544,1.754,1.088,1.774,1.348.059,2-1.7,2-2.03Z" transform="translate(-181.827 -103.638)" fill="#c0131e"/><path d="M314.05,177.339v-1.1h-.023a2.952,2.952,0,0,1-.686,1.124,1.784,1.784,0,0,1-1.253.434,1.9,1.9,0,0,1-.993-.236,3.622,3.622,0,0,1-.982-2.326v-8.24h.993V174.3a2.323,2.323,0,0,0,.473,1.656.883.883,0,0,0,.556.276,1.14,1.14,0,0,0,.7-.118c1.076-.631,1.218-2.168,1.218-3.508V166.99h.993v10.349Z" transform="translate(-193.372 -104.128)" fill="#c0131e"/><path d="M328.146,162.354h.982v1.518h-.982v7.175c0,.651.426.69.982.533v1.459a2.282,2.282,0,0,1-1.077.118c-.686-.118-.9-1.064-.9-1.458v-7.826h-.864v-1.518h.864v-2.8h.993Z" transform="translate(-203.46 -99.491)" fill="#c0131e"/><path d="M337.211,172.312a4.869,4.869,0,0,0,.343,2.247c.272.611.674,1.281,1.4,1.281,1.23,0,1.514-1.577,1.656-2.168h1.005a5.919,5.919,0,0,1-.556,2.07,2.336,2.336,0,0,1-2.093,1.537,2.521,2.521,0,0,1-2.188-1.656,10,10,0,0,1-.627-3.9,9.249,9.249,0,0,1,.768-3.981c.675-1.262,1.514-1.656,2.283-1.558a2.526,2.526,0,0,1,1.845,1.479,10.452,10.452,0,0,1,.7,4.652Zm3.453-1.459a6.2,6.2,0,0,0-.449-2.4,1.361,1.361,0,0,0-1.076-.907,1.275,1.275,0,0,0-1.36.907,6.409,6.409,0,0,0-.532,2.4Z" transform="translate(-209.606 -103.614)" fill="#c0131e"/><path d="M368.745,156.31h1.183L366.9,170.679h-1.194l-3.051-14.369h1.182l2.5,12.162Z" transform="translate(-226.136 -97.468)" fill="#c0131e"/><path d="M389.424,175.272c0,.3.225.611.473.611a.326.326,0,0,0,.225-.059v1.3a1.542,1.542,0,0,1-.769.178c-.449,0-.887-.809-.922-1.5-.484.611-1.159,1.5-1.975,1.5-1.383,0-2.247-1.2-2.164-3.233.071-1.714.662-2.385,1.3-2.7a10.834,10.834,0,0,1,2.294-.611.774.774,0,0,0,.5-.789v-1.222c-.083-.729-.946-1.064-1.608-1.064-1.171,0-1.242,1.438-1.265,1.912h-.935l.035-.907a3.283,3.283,0,0,1,1.029-2.031,1.935,1.935,0,0,1,1.277-.453,2.682,2.682,0,0,1,1.065.178,2.127,2.127,0,0,1,1.442,1.991Zm-1.028-3.489c-.8.532-1.916.493-2.5.927a1.892,1.892,0,0,0-.591,1.4c-.023,1.281.544,1.754,1.088,1.774,1.348.059,2-1.7,2-2.03Z" transform="translate(-239.624 -103.638)" fill="#c0131e"/><rect width="0.993" height="14.369" transform="translate(151.667 58.842)" fill="#c0131e"/><rect width="0.993" height="14.369" transform="translate(154.41 58.842)" fill="#c0131e"/><path d="M417.65,165.806a4.874,4.874,0,0,0,.343,2.247c.272.611.674,1.281,1.4,1.281,1.23,0,1.514-1.577,1.656-2.168h1.005a5.921,5.921,0,0,1-.556,2.069,2.337,2.337,0,0,1-2.093,1.538,2.521,2.521,0,0,1-2.188-1.656,10,10,0,0,1-.627-3.9,9.247,9.247,0,0,1,.768-3.981c.675-1.262,1.514-1.656,2.283-1.558a2.526,2.526,0,0,1,1.845,1.479,10.452,10.452,0,0,1,.7,4.652Zm3.453-1.459a6.2,6.2,0,0,0-.449-2.405,1.361,1.361,0,0,0-1.076-.906,1.275,1.275,0,0,0-1.36.906,6.412,6.412,0,0,0-.532,2.405Zm-.035-8.614-1.75,2.917H418.6l1.147-2.917Z" transform="translate(-259.765 -97.108)" fill="#c0131e"/><path d="M435.429,172.312a4.862,4.862,0,0,0,.343,2.247c.272.611.675,1.281,1.4,1.281,1.23,0,1.514-1.577,1.656-2.168h1a5.9,5.9,0,0,1-.556,2.07,2.336,2.336,0,0,1-2.093,1.537,2.521,2.521,0,0,1-2.188-1.656,10.02,10.02,0,0,1-.626-3.9,9.225,9.225,0,0,1,.769-3.981c.673-1.262,1.514-1.656,2.282-1.558a2.524,2.524,0,0,1,1.845,1.479,10.441,10.441,0,0,1,.7,4.652Zm3.453-1.459a6.191,6.191,0,0,0-.449-2.4,1.36,1.36,0,0,0-1.076-.907,1.275,1.275,0,0,0-1.36.907,6.39,6.39,0,0,0-.532,2.4Z" transform="translate(-270.85 -103.614)" fill="#c0131e"/><path d="M278.264,211.122c-.547-2.619-1.606-4.356-3.331-4.356a3.156,3.156,0,0,0-2.681,1.993,18.218,18.218,0,0,0,0,12.982,3.156,3.156,0,0,0,2.681,1.993c1.828,0,2.955-1.907,3.587-5.865h1.64c-.529,4.754-2.477,8.313-5.312,8.256a4.627,4.627,0,0,1-3.45-2.135c-1.452-2.306-2-5.808-1.981-8.741s.53-6.434,1.981-8.74a4.628,4.628,0,0,1,3.45-2.135c2.631-.057,4.339,2.534,5.073,6.747Z" transform="translate(-167.996 -127.438)" fill="#c0131e"/><path d="M303.625,205.284h1.435v7.6a5.009,5.009,0,0,1,1.537-1.822,2.282,2.282,0,0,1,1.213-.4,2.463,2.463,0,0,1,1.451.512c1.315.769,1.5,3.047,1.469,3.5v11.359H309.3V215.846c.068-1.908-.478-2.42-.752-2.62a1.658,1.658,0,0,0-1.52-.4,3.307,3.307,0,0,0-1.418,1.281,3.481,3.481,0,0,0-.546,2.221v9.708h-1.435Z" transform="translate(-189.327 -128.006)" fill="#c0131e"/><path d="M329.477,228.4a7.033,7.033,0,0,0,.5,3.246c.393.882.974,1.85,2.015,1.85,1.777,0,2.187-2.278,2.392-3.131h1.452a8.515,8.515,0,0,1-.8,2.989,3.374,3.374,0,0,1-3.022,2.221,3.641,3.641,0,0,1-3.16-2.391,14.45,14.45,0,0,1-.905-5.638,13.349,13.349,0,0,1,1.111-5.75c.973-1.823,2.186-2.392,3.3-2.25a3.647,3.647,0,0,1,2.664,2.136c.973,2.192.991,3.957,1.007,6.719Zm4.988-2.107a8.948,8.948,0,0,0-.649-3.473,1.965,1.965,0,0,0-1.554-1.309,1.841,1.841,0,0,0-1.964,1.309,9.237,9.237,0,0,0-.769,3.473Z" transform="translate(-204.489 -136.883)" fill="#c0131e"/><path d="M355.4,235.657l-3.143-14.947h1.605l2.323,12.1,2.6-12.1h1.606l-3.434,14.947Z" transform="translate(-219.653 -137.626)" fill="#c0131e"/><path d="M378.076,220h1.435v2.335h.034c.529-1.709,1.383-2.677,2.032-2.762h.8v2.505a2.649,2.649,0,0,0-1.367.342c-1.007.769-1.5,2.163-1.5,4.755v7.772h-1.435Z" transform="translate(-235.752 -136.918)" fill="#c0131e"/><path d="M393.849,228.4a7.034,7.034,0,0,0,.5,3.246c.392.882.973,1.85,2.015,1.85,1.776,0,2.186-2.278,2.392-3.131H400.2a8.548,8.548,0,0,1-.8,2.989,3.375,3.375,0,0,1-3.023,2.221,3.641,3.641,0,0,1-3.16-2.391,14.436,14.436,0,0,1-.9-5.638,13.344,13.344,0,0,1,1.11-5.75c.974-1.823,2.186-2.392,3.3-2.25a3.647,3.647,0,0,1,2.664,2.136c.973,2.192.99,3.957,1.008,6.719Zm4.988-2.107a8.948,8.948,0,0,0-.649-3.473,1.964,1.964,0,0,0-1.554-1.309,1.841,1.841,0,0,0-1.964,1.309,9.26,9.26,0,0,0-.769,3.473Z" transform="translate(-244.628 -136.883)" fill="#c0131e"/><path d="M424.812,235.658v-1.594h-.035a4.271,4.271,0,0,1-.99,1.623,2.58,2.58,0,0,1-1.811.626,2.737,2.737,0,0,1-1.435-.341,5.233,5.233,0,0,1-1.418-3.359v-11.9h1.435v10.563a3.352,3.352,0,0,0,.683,2.391,1.274,1.274,0,0,0,.8.4,1.644,1.644,0,0,0,1.008-.171c1.554-.911,1.759-3.132,1.759-5.068v-8.114h1.435v14.947Z" transform="translate(-261.347 -137.626)" fill="#c0131e"/><path d="M444.745,230.537a3.034,3.034,0,0,0,1.554,2.9,2.947,2.947,0,0,0,1.264.171,3.245,3.245,0,0,0,1.127-.683,3.059,3.059,0,0,0,.564-1.822,2.046,2.046,0,0,0-.974-1.907,16.091,16.091,0,0,1-3.33-1.509c-.7-.427-1.315-1.452-1.315-3.644,0-2.847,1.537-4.47,3.3-4.47,2.955,0,3.313,2.933,3.33,4.613h-1.4c0-.769-.052-2.392-2.05-2.392a2,2,0,0,0-1.741,1.595,2.068,2.068,0,0,0,.426,2.05,7.25,7.25,0,0,0,2.1,1.111,4.283,4.283,0,0,1,2.066,1.139,4.817,4.817,0,0,1,.974,3.7,5.077,5.077,0,0,1-1.606,3.587,3.627,3.627,0,0,1-1.64.626,4.878,4.878,0,0,1-1.725-.2c-2.083-.8-2.271-3.473-2.271-4.869Z" transform="translate(-276.482 -136.918)" fill="#c0131e"/><path d="M468.344,228.4a7.031,7.031,0,0,0,.5,3.246c.393.882.974,1.85,2.016,1.85,1.777,0,2.186-2.278,2.392-3.131H474.7a8.514,8.514,0,0,1-.8,2.989,3.374,3.374,0,0,1-3.022,2.221,3.642,3.642,0,0,1-3.16-2.391,14.457,14.457,0,0,1-.905-5.638,13.35,13.35,0,0,1,1.111-5.75c.973-1.823,2.186-2.392,3.3-2.25a3.647,3.647,0,0,1,2.664,2.136c.973,2.192.991,3.957,1.007,6.719Zm4.987-2.107a8.947,8.947,0,0,0-.649-3.473,1.965,1.965,0,0,0-1.554-1.309,1.841,1.841,0,0,0-1.964,1.309,9.242,9.242,0,0,0-.768,3.473Z" transform="translate(-291.08 -136.883)" fill="#c0131e"/><path d="M168.844,150.973H172.7c.759-.148,2.53.379,2.77,3.731.266,3.731-1.416,5.165-2.39,5.123h-3.048v6.514h-1.189Zm1.189,7.1h3.023c.228,0,1.341-.7,1.24-2.825-.1-2.087-1.088-2.53-1.606-2.53h-2.657Z" transform="translate(-105.284 -94.126)" fill="#c0131e"/><path d="M200.465,171.29c0,.316.241.653.506.653a.346.346,0,0,0,.24-.063v1.391a1.645,1.645,0,0,1-.822.19c-.481,0-.949-.864-.987-1.6-.518.654-1.24,1.6-2.113,1.6-1.479,0-2.4-1.286-2.314-3.457.076-1.834.708-2.551,1.391-2.888a11.6,11.6,0,0,1,2.454-.654.828.828,0,0,0,.531-.843v-1.307c-.089-.78-1.012-1.138-1.72-1.138-1.252,0-1.328,1.539-1.353,2.045h-1l.038-.97a3.5,3.5,0,0,1,1.1-2.171,2.071,2.071,0,0,1,1.366-.485,2.865,2.865,0,0,1,1.138.19,2.275,2.275,0,0,1,1.543,2.129Zm-1.1-3.732c-.86.569-2.049.527-2.669.991a2.024,2.024,0,0,0-.632,1.5c-.026,1.37.582,1.876,1.163,1.9,1.442.063,2.138-1.813,2.138-2.172Z" transform="translate(-121.574 -100.762)" fill="#c0131e"/><path d="M219.948,161.909h1.062v1.729h.025c.392-1.265,1.025-1.982,1.505-2.045h.594v1.855a1.96,1.96,0,0,0-1.012.253c-.746.569-1.113,1.6-1.113,3.52v5.755h-1.062Z" transform="translate(-137.15 -100.762)" fill="#c0131e"/><path d="M240.865,169.16a7.812,7.812,0,0,1-.354,2.235,2.641,2.641,0,0,1-2.5,2.066,2.885,2.885,0,0,1-2.327-2.34,13.239,13.239,0,0,1-.455-3.752,9.68,9.68,0,0,1,.949-4.279,2.468,2.468,0,0,1,2-1.5,2.21,2.21,0,0,1,1.872.991,5.407,5.407,0,0,1,.822,3.057h-1.05c-.114-1.159-.265-1.708-.708-2.066a1.313,1.313,0,0,0-.911-.358c-.4.042-.86.316-1.3,1.159a7.508,7.508,0,0,0-.518,2.741,9.927,9.927,0,0,0,.241,2.972c.4,1.328,1.062,1.749,1.644,1.708a1.6,1.6,0,0,0,1.264-1.2,6.99,6.99,0,0,0,.317-1.433Z" transform="translate(-146.674 -100.761)" fill="#c0131e"/><path d="M155.423,205.995v.919h.017a2.092,2.092,0,0,1,.484-.794,1.024,1.024,0,0,1,.87-.335,1.491,1.491,0,0,1,.719.2,2.161,2.161,0,0,1,.694,1.644v5.683h-.7v-5.084c.009-.905-.393-1.379-.877-1.379-.585,0-1.22.613-1.2,2.577v3.886h-.7v-7.313Z" transform="translate(-96.477 -128.318)" fill="#c0131e"/><path d="M175.057,212.2c0,.209.159.431.334.431a.229.229,0,0,0,.159-.042v.92a1.085,1.085,0,0,1-.543.125c-.318,0-.627-.571-.652-1.058-.343.432-.819,1.058-1.4,1.058-.978,0-1.587-.849-1.529-2.284.05-1.212.468-1.685.92-1.908a7.666,7.666,0,0,1,1.621-.432.547.547,0,0,0,.351-.557v-.864c-.058-.515-.669-.752-1.136-.752-.827,0-.877,1.017-.894,1.351h-.66l.025-.641a2.315,2.315,0,0,1,.727-1.435,1.367,1.367,0,0,1,.9-.321,1.9,1.9,0,0,1,.752.125,1.506,1.506,0,0,1,1.02,1.407Zm-.727-2.466c-.568.376-1.354.348-1.764.655a1.338,1.338,0,0,0-.417.989c-.017.905.385,1.24.769,1.254.952.042,1.412-1.2,1.412-1.434Z" transform="translate(-106.894 -128.32)" fill="#c0131e"/><path d="M189.463,203.067h.694v1.073h-.694v5.07c0,.46.3.487.694.376v1.031a1.612,1.612,0,0,1-.761.083c-.484-.083-.635-.752-.635-1.031v-5.53h-.61v-1.073h.61v-1.978h.7Z" transform="translate(-117.323 -125.39)" fill="#c0131e"/><path d="M203.229,213.656v-.78h-.017a2.094,2.094,0,0,1-.484.794,1.263,1.263,0,0,1-.886.306,1.339,1.339,0,0,1-.7-.167,2.56,2.56,0,0,1-.694-1.644v-5.822h.7v5.168a1.639,1.639,0,0,0,.334,1.17.623.623,0,0,0,.393.2.807.807,0,0,0,.493-.084c.76-.445.861-1.532.861-2.479v-3.97h.7v7.313Z" transform="translate(-124.989 -128.666)" fill="#c0131e"/><path d="M217.872,206h.7v1.143h.017c.259-.836.677-1.309.995-1.351h.393v1.226a1.3,1.3,0,0,0-.669.167c-.493.376-.736,1.059-.736,2.326v3.8h-.7Z" transform="translate(-135.855 -128.32)" fill="#c0131e"/><path d="M230.362,210.1a3.441,3.441,0,0,0,.242,1.588c.193.432.477.9.986.9.87,0,1.07-1.114,1.17-1.532h.71a4.172,4.172,0,0,1-.393,1.463,1.651,1.651,0,0,1-1.479,1.086,1.782,1.782,0,0,1-1.546-1.17,7.067,7.067,0,0,1-.443-2.758,6.532,6.532,0,0,1,.544-2.814c.476-.892,1.07-1.17,1.613-1.1a1.785,1.785,0,0,1,1.3,1.045,7.379,7.379,0,0,1,.493,3.287Zm2.44-1.031a4.386,4.386,0,0,0-.318-1.7.962.962,0,0,0-.76-.641.9.9,0,0,0-.961.641,4.531,4.531,0,0,0-.376,1.7Z" transform="translate(-143.174 -128.303)" fill="#c0131e"/><rect width="0.702" height="10.155" transform="translate(93.196 74.835)" fill="#c0131e"/><path d="M138.6,241.081h.7v1.142h.017c.259-.836.677-1.309.995-1.351h.393V242.1a1.3,1.3,0,0,0-.669.167c-.492.376-.735,1.059-.735,2.326v3.8h-.7Z" transform="translate(-86.427 -150.197)" fill="#c0131e"/><path d="M151.094,240.589a3.44,3.44,0,0,0,.242,1.588c.192.432.476.905.986.905.869,0,1.069-1.115,1.17-1.532h.71a4.188,4.188,0,0,1-.393,1.462,1.652,1.652,0,0,1-1.479,1.086,1.782,1.782,0,0,1-1.546-1.17,7.066,7.066,0,0,1-.443-2.758,6.541,6.541,0,0,1,.543-2.814c.477-.891,1.07-1.17,1.613-1.1a1.784,1.784,0,0,1,1.3,1.045,7.385,7.385,0,0,1,.493,3.287Zm2.441-1.031a4.381,4.381,0,0,0-.317-1.7.963.963,0,0,0-.761-.641.9.9,0,0,0-.961.641,4.526,4.526,0,0,0-.376,1.7Zm-.025-6.087-1.237,2.062h-.51l.811-2.062Z" transform="translate(-93.746 -145.582)" fill="#c0131e"/><path d="M171.274,241.079v6.073c-.025,1.755-.125,3.51-1.045,4a2.864,2.864,0,0,1-.736.293,1.355,1.355,0,0,1-.986-.209,2.353,2.353,0,0,1-.928-2.006h.711a1.207,1.207,0,0,0,.485,1.017.928.928,0,0,0,.543.167,1.128,1.128,0,0,0,.635-.195,1.532,1.532,0,0,0,.526-1.17,9.206,9.206,0,0,0,.092-1.532c-.259.5-.761,1.212-1.429,1.2a1.427,1.427,0,0,1-.928-.655,4.641,4.641,0,0,1-.785-2.855,8.325,8.325,0,0,1,.476-3.19c.093-.195.669-1.184,1.412-1.142.477.027.894.348,1.237,1.1h.017v-.891Zm-1.1,1.56a.979.979,0,0,0-.777-.487c-.368-.014-.769.223-1,1.059a7.437,7.437,0,0,0-.209,1.644,5.094,5.094,0,0,0,.276,1.964c.209.488.518.766.844.794.318.056.643-.139.886-.571a6.32,6.32,0,0,0-.017-4.4" transform="translate(-104.399 -150.196)" fill="#c0131e"/><path d="M186.295,244.033h-.7V236.72h.7Zm0-8.706h-.7v-1.449h.7Z" transform="translate(-115.728 -145.836)" fill="#c0131e"/><path d="M196.83,248.715c-.8,0-1.981-.669-1.981-3.929s1.178-3.914,1.981-3.914,1.981.654,1.981,3.914-1.178,3.929-1.981,3.929m0-6.672c-.919,0-1.262,1.546-1.262,2.744s.343,2.758,1.262,2.758,1.262-1.56,1.262-2.758-.335-2.744-1.262-2.744" transform="translate(-121.499 -150.198)" fill="#c0131e"/><path d="M213.642,241.079V242h.017a2.1,2.1,0,0,1,.484-.794,1.023,1.023,0,0,1,.869-.334,1.484,1.484,0,0,1,.719.2,2.162,2.162,0,0,1,.694,1.644v5.683h-.7v-5.084c.009-.9-.393-1.379-.878-1.379-.585,0-1.22.613-1.2,2.577v3.886h-.7v-7.313Z" transform="translate(-132.78 -150.195)" fill="#c0131e"/><path d="M233.277,247.279c0,.209.158.432.333.432a.229.229,0,0,0,.159-.042v.919a1.081,1.081,0,0,1-.543.126c-.318,0-.627-.571-.652-1.059-.343.431-.819,1.059-1.4,1.059-.978,0-1.587-.85-1.53-2.284.05-1.212.468-1.686.92-1.909a7.673,7.673,0,0,1,1.621-.432.547.547,0,0,0,.351-.557v-.863c-.058-.515-.669-.752-1.137-.752-.827,0-.877,1.017-.894,1.351h-.66l.025-.641a2.316,2.316,0,0,1,.727-1.435,1.367,1.367,0,0,1,.9-.32,1.894,1.894,0,0,1,.752.125,1.506,1.506,0,0,1,1.02,1.408Zm-.727-2.466c-.568.376-1.354.349-1.764.655a1.337,1.337,0,0,0-.417.989c-.017.9.385,1.24.769,1.254.953.042,1.413-1.2,1.413-1.435Z" transform="translate(-143.196 -150.197)" fill="#c0131e"/><rect width="0.702" height="10.155" transform="translate(93.196 88.042)" fill="#c0131e"/><path d="M29.345,100.306c16.207,0,29.345-22.455,29.345-50.153S45.552,0,29.345,0,0,22.455,0,50.153s13.139,50.153,29.345,50.153" fill="#007a54"/><path d="M21.828,84.836V99.052l1.722,1.717s-.034-3.257,0-4.9l1.864,0v6.795l6.069,6.233V99.02l-4.624-4.631,1.3-1.3c.8.815,3.322,3.286,3.322,3.286l.011-1.956L23.736,86.45l1.43-1.311,6.312,6.532.011-6.835h1.674l.043,43.613c-.124.188-2.1,1.888-2.1,1.888-1.8,1.273-4.034,2.561-6.351,2.017-.414.186-.969,2.278-1.212,2.822l-3.694-.719,1.345-4.778s-3.261,1.688-4.806,2.5a12.16,12.16,0,0,1-2.131-2.532,3.339,3.339,0,0,1,.543-.73c3.591-4.949,7-9.727,10.514-14.619a7.212,7.212,0,0,1,1.988-1.79l-20.37,0v-1.989H18.172L11.877,104c-.026,0,1.488-1.34,1.488-1.34l7.486,7.868,2.3,0-5.064-5.145,1.487-1.407,6.323,6.552,4.42-.034L22.8,102.829H17.6l.011-1.988,3.261-.029L19.463,99.4H10.618l0-2h6.823L12.736,92.5l1.373-1.4,5.845,6.008V84.836Z" transform="translate(-4.32 -52.9)" fill="#fff"/><path d="M81.693,91.609,88.9,85.491l1.13,1.345L81.693,93.9l0,2.451L85.5,93.1l1.023,1.287L81.69,98.824l0,9.173,6.115-5.221.018-6.813,1.9.018v5.042l2.43-2.142.028-14.045h1.824l-.007,12.371,7.724-6.494,1.08,1.28L96.3,97.62h6.226v1.819l-8.3-.007c-.558.486-1.237,1.023-1.724,1.509l3.059,0-.012,1.883H90.3c-1.33,1.144-8.612,7.667-8.612,7.667l4.492.028c2.36-2.131,7.778-6.793,7.867-6.895l1.252,1.452L88.928,110.5l2.34-.005c2.961-2.432,9.261-7.662,9.261-7.662l1.074,1.305c-2.4,2.1-7.555,6.362-7.555,6.362l14.254-.005-.227,2.022H83.135s6.566,24.418,7.725,28.6c0,0-.422.451-1.459,1.488a15.582,15.582,0,0,1-9.084,4.613s-.3.045-.315.05V84.836H81.69Z" transform="translate(-49.886 -52.9)" fill="#fff"/><path d="M59.069,168.727a1.93,1.93,0,1,0,1.93,1.93,1.93,1.93,0,0,0-1.93-1.93" transform="translate(-35.629 -105.211)" fill="#01825f"/><path d="M48.075,25.4l.494-.033a7.456,7.456,0,0,1,1.318-.89,1.3,1.3,0,0,0,.692-.527c.1-.165.527-.1.626-.165a2.685,2.685,0,0,0,.329-.362l.626-.033.988,1.087-.132.527-.363.2v.461l-1.219.692-.395.066.065.363-.494.3.1.2,1.021.263.725.264.791.2.856.428,1.021.2s.264.066.23.461-.033,1.285-.033,1.285l-.363.165s0-.56-.4-.23-.659.264-.757.2a1.675,1.675,0,0,0-.725-.132c-.165.033-.428-.527-.659-.527a2,2,0,0,1-.889-.4c-.132-.132-.231-.033-.231-.033l.165.329H51.2l-.4-.329-.165-.363-.461-.1v.2a.461.461,0,0,1-.494-.066,3.631,3.631,0,0,0-1.285-.4c-.3-.033-.362,0-.362.264a5.937,5.937,0,0,0,.066.692l.264-.1.165.231v.461l.461.033-.132.56.3.033.033.494.329-.231.527.066.2,1.12.4.033.725.922-.165.23.362.066.264.428-.033.461s-1.219.791-1.219.988-.4.066-.527.066-.132-.23-.132-.23l-.362-.033-.428-.494L49,34.2l-.362-.264-.3-.3s-.033-.527-.264-.593a1.242,1.242,0,0,1-.4-.2v-.264a3.063,3.063,0,0,0-.593-.2c-.132,0-.165-.362-.165-.362l-.494-.033a1.237,1.237,0,0,0,.033.461,1.971,1.971,0,0,1,.066.527l-.3.165s-.165.2-.033.362a.536.536,0,0,1,.165.462c0,.263.2.329.1.461s0,.2.033.3a3.24,3.24,0,0,0,.363.461l-.033.2a2.3,2.3,0,0,1-.363.132c-.23.066-.626-.1-.724,0s-.428.033-.527.033-.132-.527-.2-.692a4.292,4.292,0,0,1-.1-1.12.791.791,0,0,0-.066-.461c-.066-.2-.132-.494-.132-.494l.165-.4.2-.395-.462.263-.2-.56-.165.066.1.626s-.165.428-.264.461a.553.553,0,0,0-.363.264c-.066.165.066.363-.132.4s-.428-.065-.593.132-.23.165-.329.362a1.985,1.985,0,0,1-.23.461c-.1.1-.132.132-.363.066s-.461-.3-.725-.3A1.187,1.187,0,0,1,40.73,34c-.165-.1-.165-.3-.362-.362s-.4-.1-.428-.2-.131-.1.165-.4,1.252-1.219,1.647-1.68S43.4,29.52,43.4,29.52s.1.033.264-.1.56-.527.231-.659a3.48,3.48,0,0,0-1.252-.329c-.692-.066-.988.1-1.12,0s-.2-.132-.461-.066a1.307,1.307,0,0,1-.724.066c-.329-.066-.231-.264-.692-.165s-.363.165-.791.23-.527.23-.758.033a.724.724,0,0,1-.23-.659c0-.263-.132-.263-.165-.461,0,0-.1-.362.1-.461a3.873,3.873,0,0,1,.89-.1,14.12,14.12,0,0,1,2.338-.132,3.087,3.087,0,0,1,.3.165l.132-.132s.527-.066.692-.066-.1-.231-.1-.231v-.363a1.531,1.531,0,0,1-.165-.2c-.066-.1-.527-.593-.527-.593l-.033-.329-.231.033-.461-.725-.033-.461-.263-.329-.3.033.066-.3A12.443,12.443,0,0,1,41.29,22.6a7.378,7.378,0,0,0,1.021-.363,3,3,0,0,1,.527-.363c.132-.033.231.165.231.165l.132.56.231.23-.1.2-.033.2.4.363-.132.2.395.066a2.437,2.437,0,0,0,0,.494c.033.1.428.461.462.626s.033.461.165.56a4.7,4.7,0,0,0,.692.362c.1.033.3-.2.3-.2l.033-.593a1.834,1.834,0,0,1,.23-.461c.132-.165.363-.494.329-.692a.914.914,0,0,1,0-.593,1.59,1.59,0,0,0,.1-.56l.23-.1-.165-.231.033-.1.4-.132v-.3l-.1-.2a4.867,4.867,0,0,1,.066-.56.613.613,0,0,1,.395-.3c.132,0,.989.033.989.033l.593.165s.4-.132.494.033,0,.329-.033.461.165.4-.066.527-.132.23-.165.362a2.074,2.074,0,0,0,0,.462s.132.362,0,.428-.2.066-.264.231.033.461-.132.527-.23,0-.329.165a.667.667,0,0,0-.033.428c0,.1.3.3.066.362s-.165.329-.165.329" transform="translate(-23.493 -13.026)" fill="#fff"/><path d="M51.019,24.828l-.066.231h.23l.066-.2Z" transform="translate(-31.772 -15.481)" fill="#01825f"/><path d="M50.9,26.043l.264-.165v.658l-.3.033Z" transform="translate(-31.718 -16.137)" fill="#01825f"/><path d="M62.613,35l-.2-.231.362-.23.132.132Z" transform="translate(-38.919 -21.538)" fill="#01825f"/><path d="M63.5,32.88l-.033-.2-.264-.132.3-.2.264.329v.23Z" transform="translate(-39.41 -20.174)" fill="#01825f"/><path d="M63.553,31.128h.329l.2.165v.264l-.264-.033-.231-.264Z" transform="translate(-39.629 -19.41)" fill="#01825f"/><path d="M65.545,28.33l-.132-.3-.2-.066.132-.165.329.066.066.231Z" transform="translate(-40.665 -17.336)" fill="#01825f"/><path d="M66.529,25.933l-.264-.132.1-.066.2-.033Z" transform="translate(-41.32 -16.027)" fill="#01825f"/><path d="M66.726,22.739l-.4-.1-.066.165.4.132.23-.033Z" transform="translate(-41.32 -14.117)" fill="#01825f"/><path d="M63.9,43.2l.329.23.132.2-.2.066Z" transform="translate(-39.847 -26.94)" fill="#01825f"/><path d="M64.078,45.456l.626-.066.2.264H64.44Z" transform="translate(-39.956 -28.303)" fill="#01825f"/><path d="M69.24,49.766l.3.066.165.593-.23-.033Z" transform="translate(-43.175 -31.032)" fill="#01825f"/><path d="M71.516,53.616h.494l.033.165-.494-.033Z" transform="translate(-44.594 -33.432)" fill="#01825f"/><path d="M71.986,51.691l.3.329-.066.2-.263-.231Z" transform="translate(-44.867 -32.232)" fill="#01825f"/><path d="M73.617,55.016l-.264.132.264.1.3.033Z" transform="translate(-45.74 -34.305)" fill="#01825f"/><path d="M52.266,52.741,52,52.872l.231.2.23-.2Z" transform="translate(-32.427 -32.887)" fill="#01825f"/><path d="M46.053,39.79l.033.165.461.066v-.23Z" transform="translate(-28.716 -24.812)" fill="#01825f"/></g></g></svg>